<?xml version="1.0" encoding="UTF-8"?>
<svg width="64" height="64" viewBox="0 0 64 64" fill="none" xmlns="http://www.w3.org/2000/svg">
  <!-- Brain outline -->
  <path d="M32 10C22 10 14 18 14 28C14 38 22 46 32 46C42 46 50 38 50 28C50 18 42 10 32 10Z" stroke="#4A86E8" stroke-width="3" fill="none"/>
  
  <!-- Neural network connections -->
  <circle cx="24" cy="24" r="4" fill="#F5B700"/>
  <circle cx="40" cy="24" r="4" fill="#F5B700"/>
  <circle cx="32" cy="18" r="4" fill="#F5B700"/>
  <circle cx="20" cy="34" r="4" fill="#F5B700"/>
  <circle cx="32" cy="38" r="4" fill="#F5B700"/>
  <circle cx="44" cy="34" r="4" fill="#F5B700"/>
  
  <!-- Connection lines -->
  <path d="M24 24L32 18M24 24L20 34M24 24L32 38M24 24L40 24M40 24L32 18M40 24L44 34M40 24L32 38M32 18L20 34M32 18L44 34M20 34L32 38M32 38L44 34" stroke="#4A86E8" stroke-width="1.5"/>
  
  <!-- Data points -->
  <circle cx="10" cy="54" r="3" fill="#4A86E8"/>
  <circle cx="20" cy="54" r="3" fill="#4A86E8"/>
  <circle cx="30" cy="54" r="3" fill="#4A86E8"/>
  <circle cx="40" cy="54" r="3" fill="#4A86E8"/>
  <circle cx="50" cy="54" r="3" fill="#4A86E8"/>
  <path d="M10 54L20 51L30 54L40 50L50 54" stroke="#4A86E8" stroke-width="2"/>
</svg> 