<?xml version="1.0" encoding="UTF-8"?>
<svg width="64" height="64" viewBox="0 0 64 64" fill="none" xmlns="http://www.w3.org/2000/svg">
  <!-- Main circle -->
  <circle cx="32" cy="32" r="24" stroke="#4A86E8" stroke-width="3" fill="none"/>
  
  <!-- Layer 1: URL analysis -->
  <path d="M22 20H42C43.1046 20 44 20.8954 44 22V26C44 27.1046 43.1046 28 42 28H22C20.8954 28 20 27.1046 20 26V22C20 20.8954 20.8954 20 22 20Z" fill="#F5B700"/>
  <path d="M24 24H27M30 24H34M37 24H40" stroke="#4A86E8" stroke-width="2" stroke-linecap="round"/>
  
  <!-- Layer 2: Content analysis -->
  <path d="M20 32H44M20 35H38M20 38H40" stroke="#4A86E8" stroke-width="2" stroke-linecap="round"/>
  
  <!-- Layer 3: Certificate analysis -->
  <circle cx="32" cy="48" r="4" fill="#F5B700"/>
  <path d="M32 44L32 42M32 54L32 52M28 48L26 48M38 48L36 48" stroke="#4A86E8" stroke-width="2" stroke-linecap="round"/>
  
  <!-- Connection lines -->
  <path d="M32 28V32" stroke="#4A86E8" stroke-width="1" stroke-dasharray="2 2"/>
  <path d="M32 38V44" stroke="#4A86E8" stroke-width="1" stroke-dasharray="2 2"/>
  
  <!-- Analytical symbols -->
  <path d="M12 12L16 16M52 12L48 16M12 52L16 48M52 52L48 48" stroke="#4A86E8" stroke-width="2" stroke-linecap="round"/>
</svg> 