<svg width="300" height="300" viewBox="0 0 300 300" fill="none" xmlns="http://www.w3.org/2000/svg">
  <g transform="translate(30, 30) scale(0.8)">
    <!-- Тело корги -->
    <ellipse cx="150" cy="170" rx="100" ry="80" fill="#F9A755"/>
    
    <!-- Мордочка -->
    <circle cx="150" cy="140" r="70" fill="#FFDCB5"/>
    
    <!-- Уши -->
    <path d="M100 100C80 70 50 80 40 110C30 140 60 120 100 100Z" fill="#F9A755"/>
    <path d="M200 100C220 70 250 80 260 110C270 140 240 120 200 100Z" fill="#F9A755"/>
    
    <!-- Глаза -->
    <ellipse cx="130" cy="130" rx="10" ry="15" fill="white"/>
    <ellipse cx="170" cy="130" rx="10" ry="15" fill="white"/>
    
    <!-- Зрачки (крестики) -->
    <g stroke="#333333" stroke-width="3">
      <line x1="125" y1="125" x2="135" y2="135"/>
      <line x1="135" y1="125" x2="125" y2="135"/>
      <line x1="165" y1="125" x2="175" y2="135"/>
      <line x1="175" y1="125" x2="165" y2="135"/>
    </g>
    
    <!-- Нос -->
    <ellipse cx="150" cy="150" rx="15" ry="10" fill="#333333"/>
    
    <!-- Рот (озадаченный) -->
    <path d="M135 165C140 172 160 172 165 165" stroke="#333333" stroke-width="3" fill="none"/>
    
    <!-- Вопросительный знак над головой -->
    <path d="M150 30C140 30 130 40 130 50C130 60 140 65 145 70C150 75 150 85 150 85" stroke="#4a86e8" stroke-width="6" fill="none"/>
    <circle cx="150" cy="100" r="5" fill="#4a86e8"/>
    
    <!-- Лапы -->
    <path d="M90 210C80 220 70 230 80 240C90 250 110 240 120 230" fill="#FFDCB5"/>
    <path d="M210 210C220 220 230 230 220 240C210 250 190 240 180 230" fill="#FFDCB5"/>
    
    <!-- Хвост -->
    <path d="M230 170C250 160 270 180 260 200C250 220 240 190 230 170Z" fill="#F9A755"/>
  </g>
</svg> 