<?xml version="1.0" encoding="UTF-8"?>
<svg width="32" height="32" viewBox="0 0 32 32" fill="none" xmlns="http://www.w3.org/2000/svg">
  <!-- Corgi head shape -->
  <path d="M16 28C22.6274 28 28 22.6274 28 16C28 9.37258 22.6274 4 16 4C9.37258 4 4 9.37258 4 16C4 22.6274 9.37258 28 16 28Z" fill="#F5B700"/>
  <!-- Ears -->
  <path d="M7 10C6 8 5 7 4 7C3 9 4 13 5 14C6 15 8 13 7 10Z" fill="#F5B700"/>
  <path d="M25 10C26 8 27 7 28 7C29 9 28 13 27 14C26 15 24 13 25 10Z" fill="#F5B700"/>
  <!-- Face details -->
  <circle cx="11" cy="15" r="1.5" fill="#333333"/>
  <circle cx="21" cy="15" r="1.5" fill="#333333"/>
  <path d="M14 18C15 20 17 20 18 18" stroke="#333333" stroke-width="1" stroke-linecap="round"/>
  <!-- Nose -->
  <path d="M16 17C16.8 17 17.5 16.5 17.5 16C17.5 15.5 16.8 15 16 15C15.2 15 14.5 15.5 14.5 16C14.5 16.5 15.2 17 16 17Z" fill="#333333"/>
  <!-- Shield overlay -->
  <path d="M16 26C19 26 20 22 20 19C20 16 19 11 16 11C13 11 12 16 12 19C12 22 13 26 16 26Z" fill="#4A86E8" fill-opacity="0.4"/>
  <!-- Lock icon -->
  <rect x="14.5" y="16.5" width="3" height="3" rx="0.5" fill="#4A86E8"/>
  <rect x="15" y="15.5" width="2" height="2" rx="0.5" fill="#4A86E8"/>
  <circle cx="16" cy="18" r="0.5" fill="white"/>
</svg> 