<?xml version="1.0" encoding="UTF-8"?>
<svg width="500" height="400" viewBox="0 0 500 400" fill="none" xmlns="http://www.w3.org/2000/svg">
  <!-- Browser window -->
  <rect x="50" y="50" width="400" height="300" rx="8" fill="#FFFFFF" stroke="#E0E0E0" stroke-width="2"/>
  
  <!-- Browser header -->
  <rect x="50" y="50" width="400" height="40" rx="8 8 0 0" fill="#F5F5F5" stroke="#E0E0E0" stroke-width="2"/>
  
  <!-- Browser buttons -->
  <circle cx="75" cy="70" r="6" fill="#FF5F56"/>
  <circle cx="95" cy="70" r="6" fill="#FFBD2E"/>
  <circle cx="115" cy="70" r="6" fill="#27C93F"/>
  
  <!-- URL bar -->
  <rect x="140" y="60" width="280" height="20" rx="10" fill="#FFFFFF" stroke="#E0E0E0" stroke-width="1"/>
  
  <!-- Lock icon -->
  <rect x="150" y="65" width="8" height="10" rx="1" fill="#4A86E8"/>
  <rect x="151" y="62" width="6" height="5" rx="1" fill="#4A86E8"/>
  
  <!-- URL text -->
  <path d="M165 70H280" stroke="#333333" stroke-width="1"/>
  
  <!-- Browser content -->
  <rect x="70" y="110" width="360" height="220" rx="4" fill="#F8F9FA"/>
  
  <!-- Phishing site example -->
  <rect x="100" y="130" width="300" height="40" rx="4" fill="#FFFFFF" stroke="#E0E0E0" stroke-width="1"/>
  <path d="M120 150H280" stroke="#333333" stroke-width="2"/>
  <path d="M120 160H240" stroke="#333333" stroke-width="1"/>
  
  <rect x="100" y="180" width="140" height="130" rx="4" fill="#FFFFFF" stroke="#E0E0E0" stroke-width="1"/>
  <rect x="120" y="200" width="100" height="80" rx="2" fill="#F5F5F5"/>
  <path d="M130 210H210" stroke="#CCCCCC" stroke-width="1"/>
  <path d="M130 220H210" stroke="#CCCCCC" stroke-width="1"/>
  <rect x="130" y="240" width="100" height="30" rx="4" fill="#F5B700"/>
  
  <rect x="260" y="180" width="140" height="130" rx="4" fill="#FFFFFF" stroke="#E0E0E0" stroke-width="1"/>
  <path d="M280 210H370" stroke="#333333" stroke-width="1"/>
  <path d="M280 220H350" stroke="#333333" stroke-width="1"/>
  <path d="M280 230H360" stroke="#333333" stroke-width="1"/>
  <circle cx="285" cy="250" r="5" fill="#CCCCCC"/>
  <path d="M280 270H370" stroke="#333333" stroke-width="1"/>
  <path d="M280 280H340" stroke="#333333" stroke-width="1"/>
  
  <!-- CorgPhish Shield -->
  <circle cx="390" cy="320" r="40" fill="#4A86E8" fill-opacity="0.1" stroke="#4A86E8" stroke-width="2"/>
  
  <!-- Shield inside -->
  <path d="M375 300L390 295L405 300V315C405 325 400 330 390 335C380 330 375 325 375 315V300Z" fill="#F5B700" stroke="#4A86E8" stroke-width="2"/>
  
  <!-- Corgi silhouette -->
  <path d="M383 310C381 308 380 307 380 305C380 303 381 301 383 300C385 301 386 303 386 305C386 307 385 308 383 310Z" fill="#4A86E8"/>
  <path d="M397 310C399 308 400 307 400 305C400 303 399 301 397 300C395 301 394 303 394 305C394 307 395 308 397 310Z" fill="#4A86E8"/>
  <circle cx="385" cy="307" r="1.5" fill="#333333"/>
  <circle cx="395" cy="307" r="1.5" fill="#333333"/>
  <path d="M387 312C388 314 392 314 393 312" stroke="#333333" stroke-width="1" stroke-linecap="round"/>
  
  <!-- Alert badge -->
  <circle cx="350" cy="100" r="30" fill="#FF4D4D"/>
  <path d="M350 85V105" stroke="#FFFFFF" stroke-width="4" stroke-linecap="round"/>
  <circle cx="350" cy="112" r="2" fill="#FFFFFF"/>
</svg> 